<?xml version="1.0" encoding="utf-8"?>
<!-- Generator: Adobe Illustrator 17.1.0, SVG Export Plug-In . SVG Version: 6.00 Build 0)  -->
<!DOCTYPE svg PUBLIC "-//W3C//DTD SVG 1.1//EN" "http://www.w3.org/Graphics/SVG/1.1/DTD/svg11.dtd">
<svg version="1.1"
	 id="svg4764" sodipodi:docname="star-12.svg" inkscape:version="0.48.2 r9819" xmlns:sodipodi="http://sodipodi.sourceforge.net/DTD/sodipodi-0.dtd" xmlns:inkscape="http://www.inkscape.org/namespaces/inkscape" xmlns:svg="http://www.w3.org/2000/svg" xmlns:rdf="http://www.w3.org/1999/02/22-rdf-syntax-ns#" xmlns:dc="http://purl.org/dc/elements/1.1/" xmlns:cc="http://creativecommons.org/ns#"
	 xmlns="http://www.w3.org/2000/svg" xmlns:xlink="http://www.w3.org/1999/xlink" x="0px" y="0px" viewBox="0 0 12 12"
	 enable-background="new 0 0 12 12" xml:space="preserve">
<sodipodi:namedview  inkscape:window-maximized="0" inkscape:window-y="60" inkscape:window-x="96" inkscape:current-layer="layer1" inkscape:document-units="px" inkscape:pageopacity="0.0" inkscape:window-width="957" inkscape:window-height="704" inkscape:guide-bbox="true" inkscape:pageshadow="2" showguides="true" id="base" bordercolor="#666666" inkscape:zoom="22.627417" pagecolor="#ffffff" borderopacity="1.0" inkscape:cx="8.7068106" inkscape:cy="4.7770366" showgrid="true">
	<inkscape:grid  type="xygrid" snapvisiblegridlinesonly="true" visible="true" empspacing="5" id="grid4772" enabled="true">
		</inkscape:grid>
	<sodipodi:guide  id="guide4789" position="2,12" orientation="0,1"></sodipodi:guide>
	<sodipodi:guide  id="guide4791" position="12,10" orientation="1,0"></sodipodi:guide>
	<sodipodi:guide  id="guide4793" position="10,0" orientation="0,1"></sodipodi:guide>
	<sodipodi:guide  id="guide4795" position="0,9" orientation="1,0"></sodipodi:guide>
	<sodipodi:guide  id="guide4797" position="5,11" orientation="0,1"></sodipodi:guide>
	<sodipodi:guide  id="guide4799" position="11,7" orientation="1,0"></sodipodi:guide>
	<sodipodi:guide  id="guide4801" position="9,2" orientation="0,1"></sodipodi:guide>
	<sodipodi:guide  id="guide4803" position="2,5" orientation="1,0"></sodipodi:guide>
</sodipodi:namedview>
<g id="layer1" transform="translate(0,-1040.3622)" inkscape:groupmode="layer" inkscape:label="Layer 1">
	
		<g id="cross-12" transform="translate(30,-202)" inkscape:export-ydpi="89.996864" inkscape:export-xdpi="89.996864" inkscape:label="cross-12">
		<g id="g21947">
			
				<path id="path20954" inkscape:connector-curvature="0" opacity="0.3" fill="#FFFFFF" stroke="#FFFFFF" stroke-width="0.6667" stroke-linejoin="round" enable-background="new    " d="
				M-25.2,1246.7c-0.1,0-0.2,0.1-0.2,0.2c0,0,0,0.1,0,0.1l1.2,1.2l-1.2,1.2c0,0,0,0.1,0,0.1c0,0.1,0.1,0.2,0.2,0.2c0,0,0.1,0,0.1,0
				l1.2-1.2l1.2,1.2c0,0,0.1,0,0.1,0c0.1,0,0.2-0.1,0.2-0.2c0,0,0-0.1,0-0.1l-1.2-1.2l1.2-1.2c0,0,0-0.1,0-0.1
				c0-0.1-0.1-0.2-0.2-0.2c0,0-0.1,0-0.1,0l-1.2,1.2l-1.2-1.2C-25.1,1246.7-25.1,1246.7-25.2,1246.7z"/>
			<path id="path15001-7" inkscape:connector-curvature="0" fill="#444444" d="M-25.2,1246.7c-0.1,0-0.2,0.1-0.2,0.2
				c0,0,0,0.1,0,0.1l1.2,1.2l-1.2,1.2c0,0,0,0.1,0,0.1c0,0.1,0.1,0.2,0.2,0.2c0,0,0.1,0,0.1,0l1.2-1.2l1.2,1.2c0,0,0.1,0,0.1,0
				c0.1,0,0.2-0.1,0.2-0.2c0,0,0-0.1,0-0.1l-1.2-1.2l1.2-1.2c0,0,0-0.1,0-0.1c0-0.1-0.1-0.2-0.2-0.2c0,0-0.1,0-0.1,0l-1.2,1.2
				l-1.2-1.2C-25.1,1246.7-25.1,1246.7-25.2,1246.7z"/>
		</g>
		<rect id="rect22073" x="-26" y="1246.4" fill="none" width="4" height="4"/>
	</g>
</g>
</svg>
